<svg xmlns="http://www.w3.org/2000/svg" xmlns:xlink="http://www.w3.org/1999/xlink" viewBox="0 0 85 86" fill="#fff" fill-rule="evenodd" stroke="#000" stroke-linecap="round" stroke-linejoin="round" width="300" height="300" font-family="Roboto" font-size="14px" text-anchor="middle"><use xlink:href="#A" x=".5" y=".5"></use><defs><style>@import url("https://fonts.googleapis.com/css?family=Roboto:400,400i,700,700i")</style></defs><symbol id="A" overflow="visible"><path d="M42 0C18.806 0 0 19.51 0 43.574 0 62.83 12.033 79.16 28.724 84.92c2.1.4 2.866-.947 2.866-2.096l-.06-8.112c-11.68 2.633-14.148-5.138-14.148-5.138-1.912-5.032-4.663-6.372-4.663-6.372-3.817-2.702.3-2.65.3-2.65 4.217.303 6.437 4.49 6.437 4.49 3.748 6.66 9.833 4.734 12.223 3.617.382-2.81 1.47-4.734 2.666-5.82-9.323-1.1-19.13-4.84-19.13-21.537 0-4.76 1.638-8.643 4.32-11.694-.428-1.106-1.874-5.54.415-11.537 0 0 3.522-1.17 11.55 4.468 3.348-.97 6.94-1.45 10.5-1.465 3.568.016 7.162.5 10.515 1.47 8.014-5.644 11.54-4.468 11.54-4.468 2.297 6.003.85 10.43.42 11.532 2.692 3.05 4.317 6.933 4.317 11.694 0 16.74-9.823 20.426-19.18 21.505 1.513 1.35 2.85 4 2.85 8.064l-.056 11.957c0 1.16.764 2.516 2.892 2.1C71.977 79.15 84 62.82 84 43.574 84 19.51 65.194 0 42 0z" fill="#000" stroke="none"></path></symbol></svg>