<svg xmlns="http://www.w3.org/2000/svg" viewBox="0 0 50 50"><defs><style>.cls-1{fill:#563d7c;}</style></defs><title>logo-bootstrap</title><g id="Layer_2" data-name="Layer 2"><g id="Layer_1-2" data-name="Layer 1"><path class="cls-1" d="M32.62,31.24c0,4.74-4.43,4.63-4.9,4.63h-9V26.75h9C32.47,26.75,32.62,30.31,32.62,31.24ZM27,23.08c.07,0,4.29.11,4.29-4,0-1.73-.4-4-4.29-4H18.69v8.06ZM50,8.33V41.67A8.36,8.36,0,0,1,41.67,50H8.33A8.36,8.36,0,0,1,0,41.67V8.33A8.36,8.36,0,0,1,8.33,0H41.67A8.36,8.36,0,0,1,50,8.33ZM37.73,31.9c0-2.4-.74-6.5-5.48-7.51v-.08a6.41,6.41,0,0,0,4.17-6.21c0-.79.23-7.23-8.66-7.23H13.59V40c14.31,0,15.61.19,18.26-.63C33.43,38.9,37.73,37.39,37.73,31.9Z"/></g></g></svg>