<svg xmlns="http://www.w3.org/2000/svg" xmlns:xlink="http://www.w3.org/1999/xlink" viewBox="0 0 50 48.2"><defs><style>.cls-1{fill:#0868ac;}</style><symbol id="A" data-name="A" viewBox="0 0 63.97 61.67"><path class="cls-1" d="M4.06,47.2c-5.66-8.14-5-18.73-.63-27.4.1-.21.2-.41.32-.62l.2-.4.12-.22.23-.41.41-.7L5,17.06l.48-.75.2-.32.7-1,.13-.18q.32-.44.63-.84l.24-.31.59-.72.22-.26c.27-.32.54-.63.82-.93,0,0,0,0,0-.06l.83-.87.27-.27.66-.64L11,9.65c.29-.28.6-.56.9-.83l1-.84.34-.27L14,7.17l.37-.28.77-.55.36-.25.75-.5.32-.21q.59-.37,1.17-.72l.32-.2L18.89,4l.49-.25L20,3.39l.14-.07.26-.12,1-.46.2-.09,1.16-.49.28-.11,1.1-.4.14,0,1.22-.4.29-.09A10.69,10.69,0,0,1,27.06.75c27.39-5,35.34,16.46,35.34,16.46-6.68-8.7-18.54-11-29.8-8.44-.42.1-.84.23-1.25.35l-.31.1c-.41.12-.81.25-1.21.39l-.17.06-1.06.39-.3.12-1.15.48-.23.1-1,.46-.28.13c-.25.12-.5.25-.75.4l-.5.26-.9.5-.3.17c-.4.24-.79.47-1.17.72a3.45,3.45,0,0,1-.32.2l-.83.55a3.15,3.15,0,0,0-.27.19l-.79.57-.35.27-.7.55-.31.26-.89.74a.39.39,0,0,1-.1.08l-.93.85-.26.25-.66.66-.26.26c-.28.28-.55.57-.8.87l0,0c-.29.31-.56.63-.83,1l-.2.26-.6.74-.2.27-.7.92c-6.27,8.51-8.52,20.26-3.53,29.9M21.64,54c-4.09-5.89-3.87-13.8-.68-20a27.23,27.23,0,0,1,1.81-3,14.93,14.93,0,0,1,2.11-2.63c.3-.32.61-.64.92-.95l.24-.24c.31-.3.62-.59.94-.87,0,0,0,0,0,0,.36-.32.73-.6,1.11-.91l.24-.2c.38-.29.76-.57,1.15-.84l0,0,.52-.35.25-.16.85-.52.12-.07.75-.4c.09-.05.2-.09.27-.14l.52-.27.08,0c.36-.18.73-.35,1.1-.5l.24-.1.9-.36.38-.14.83-.29.37-.12a9,9,0,0,1,1.2-.34C59.08,17,64,33.29,64,33.29c-4.4-6.34-12.92-9.36-22-7-.4.1-.8.22-1.2.34l-.36.12-.84.29-.4.14q-.45.16-.9.36l-.24.1-1.11.51-.55.28L36,28.6c-.24.12-.47.26-.7.39l-.17.09-.85.52-.25.17-.55.37c-.39.27-.77.54-1.14.83l-.26.2a25.42,25.42,0,0,0-8.64,12.31A19.08,19.08,0,0,0,25,58.8m11.46.37a12.32,12.32,0,0,1-1-11.9,16.84,16.84,0,0,1,9.61-9l.53-.2.23-.07.75-.2c11.68-2.26,14.84,6,15.69,7.2-2.78-4-7.44-5-13.16-3.56a11,11,0,0,0-1.38.43,14.69,14.69,0,0,0-1.65.68,17.34,17.34,0,0,0-2.88,1.76c-5.12,3.9-8.3,11.33-5,17.36"/></symbol></defs><title>logo-jquery</title><g id="Layer_2" data-name="Layer 2"><g id="Layer_1-2" data-name="Layer 1"><use width="63.97" height="61.67" transform="matrix(0.78, 0, 0, -0.78, 0, 48.2)" xlink:href="#A"/></g></g></svg>