<svg xmlns="http://www.w3.org/2000/svg" viewBox="0 0 50 56.4"><defs><style>.cls-1{fill:#669b61;}</style></defs><title>logo-nodejs</title><g id="Layer_2" data-name="Layer 2"><g id="Layer_1-2" data-name="Layer 1"><path class="cls-1" d="M25,56.4a4.39,4.39,0,0,1-2.17-.59l-6.91-4.08c-1-.58-.52-.78-.19-.9a13.57,13.57,0,0,0,3.13-1.42.5.5,0,0,1,.51.05l5.3,3.14a.66.66,0,0,0,.64,0L46,40.67a.65.65,0,0,0,.31-.56V16.25a.68.68,0,0,0-.32-.57L25.3,3.77a.61.61,0,0,0-.64,0L4,15.69a.68.68,0,0,0-.33.58V40.11a.62.62,0,0,0,.33.55l5.66,3.27c3.08,1.53,5-.27,5-2.09V18.29a.59.59,0,0,1,.6-.59h2.62a.6.6,0,0,1,.6.59V41.85c0,4.09-2.23,6.44-6.12,6.44-1.19,0-2.13,0-4.75-1.29L2.17,43.87A4.35,4.35,0,0,1,0,40.1V16.25a4.38,4.38,0,0,1,2.17-3.77L22.82.55a4.57,4.57,0,0,1,4.34,0L47.83,12.49A4.37,4.37,0,0,1,50,16.27V40.11a4.37,4.37,0,0,1-2.17,3.77L27.16,55.81A4.36,4.36,0,0,1,25,56.4ZM41.67,32.88c0-4.46-3-5.65-9.36-6.49s-7.07-1.28-7.07-2.78c0-1.25.54-2.9,5.3-2.9,4.24,0,5.81.92,6.46,3.78a.59.59,0,0,0,.58.47h2.68a.6.6,0,0,0,.44-.19.63.63,0,0,0,.16-.46c-.42-4.93-3.7-7.23-10.32-7.23-5.9,0-9.41,2.49-9.41,6.66,0,4.52,3.5,5.78,9.15,6.33,6.77.67,7.3,1.66,7.3,3,0,2.31-1.86,3.29-6.21,3.29-5.47,0-6.67-1.37-7.08-4.09a.59.59,0,0,0-.59-.51H21a.6.6,0,0,0-.6.6c0,3.48,1.9,7.63,11,7.63,6.53,0,10.29-2.6,10.29-7.1Z"/></g></g></svg>