<svg xmlns="http://www.w3.org/2000/svg" xmlns:xlink="http://www.w3.org/1999/xlink" viewBox="0 0 22.46 50"><defs><style>.cls-1{fill:#599636;}.cls-2{fill:#6cac48;}.cls-3{fill:#c2bfbf;}</style><symbol id="A_2" data-name="A 2" viewBox="0 0 28.75 64"><path class="cls-1" d="M14.17,63.83l1.7-3.21a9.1,9.1,0,0,1,1.3-1.6,45.25,45.25,0,0,0,4-4.53A39,39,0,0,0,27.42,41.9a30.87,30.87,0,0,0,1.33-8.54A30.17,30.17,0,0,0,20,11.12a26.62,26.62,0,0,0-3.14-2.68c-.6,0-.88.45-1.12.87a7.31,7.31,0,0,0-.87,2.5A12.48,12.48,0,0,0,14.54,15v.49C14.48,15.6,14,63.6,14.17,63.83Z"/><path class="cls-2" d="M14.17,63.93c-.07.14-.14,0-.2,0a3.15,3.15,0,0,0-.6-1.92,8.21,8.21,0,0,0-1.53-1.53,33.39,33.39,0,0,1-7.49-9.56A38.33,38.33,0,0,1,0,35.28a50.66,50.66,0,0,1,1.24-11A33.55,33.55,0,0,1,10,10.49a37.34,37.34,0,0,1,3.1-2.65c.31,0,.35.28.4.49a9.22,9.22,0,0,1,.31,1.36l.7,5.23Z"/><path class="cls-3" d="M15.87,6.31a4.77,4.77,0,0,0,.88,2.13,2.26,2.26,0,0,0-1,.91,6.63,6.63,0,0,0-.52,1.15A19.76,19.76,0,0,0,14.52,15v.91c-.18-.14-.2-1.33-.2-1.5a33.94,33.94,0,0,0-.63-4.71,4.07,4.07,0,0,0-.56-1.81.75.75,0,0,1,0-.24A20.91,20.91,0,0,0,14.07,2v-.7c0-.84,0-.66.66-.94A3.17,3.17,0,0,0,15.6,0c.2,0,.25.17.25.31l-.11,1.15V4.67a8.78,8.78,0,0,0,.14,1.64Z"/></symbol></defs><title>logo-mongodb</title><g id="Layer_2" data-name="Layer 2"><g id="Layer_1-2" data-name="Layer 1"><use width="28.75" height="64" transform="matrix(0.78, 0, 0, -0.78, 0, 50)" xlink:href="#A_2"/></g></g></svg>