<svg xmlns="http://www.w3.org/2000/svg" xmlns:xlink="http://www.w3.org/1999/xlink" viewBox="0 0 50 54.17"><defs><style>.cls-1{fill:#1572b6;}.cls-1,.cls-2,.cls-3,.cls-4{fill-rule:evenodd;}.cls-2{fill:#33a9dc;}.cls-3{fill:#ebebeb;}.cls-4{fill:#fff;}</style><symbol id="A" data-name="A" viewBox="0 0 60 65"><path class="cls-1" d="M60,65H0L5,7.5,30,0,55,7.5,60,65"/><path class="cls-2" d="M51.7,27.5,54.6,60H30V5l20.3,6.1,1.3,15.4Z"/><path class="cls-3" d="M24.9,14,14.1,17.2l-.9,10.2h8l.4-5L30,20V12.5ZM11.5,47.5H30V55H10.9Z"/><path class="cls-4" d="M30,20l8.3,2.5.9,10H30V40h9.8l.7,7.5H30V55H49.1L45.8,17.3,30,12.5Z"/><path class="cls-3" d="M30,32.5H23.3L22.7,40H30Z"/></symbol></defs><title>logo-css-3</title><g id="Layer_2" data-name="Layer 2"><g id="Layer_1-2" data-name="Layer 1"><use width="60" height="65" transform="matrix(0.83, 0, 0, -0.83, 0, 54.17)" xlink:href="#A"/></g></g></svg>