<svg xmlns="http://www.w3.org/2000/svg" xmlns:xlink="http://www.w3.org/1999/xlink" viewBox="0 0 33 81" fill="white" fill-rule="evenodd" stroke="#000" width="300" height="300"><style>.B{stroke:none}.C{font-family:Roboto Condensed}</style><use xlink:href="#D" x=".5" y=".5"></use><defs><style type="text/css"></style><linearGradient id="A" x1="0%" y1="44%" x2="100%" y2="56%"><stop offset="0%" stop-color="#cfd8dc"></stop><stop offset="100%" stop-color="#607d8b"></stop></linearGradient><linearGradient id="B" x1="100%" y1="0%" x2="0%" y2="100%"><stop offset="0%" stop-color="#00387f"></stop><stop offset="100%" stop-color="#0af"></stop></linearGradient><linearGradient id="C" x1="0%" y1="61%" x2="100%" y2="39%"><stop offset="0%" stop-color="#cfd8dc"></stop><stop offset="100%" stop-color="#607d8b"></stop></linearGradient></defs><symbol id="D" overflow="visible"><path d="M9.828 26.565L31.3 14.617q-.727-1.243-2.208-2.067L7.48.41Q4.54-.728.8 1.296z" fill="url(#A)" class="B"></path><path d="M9.827 26.565l21.47-11.948q.7 1.2.7 2.79v58.277q-.26 3.103-4 4.317z" fill="#607d8b" class="B"></path><path d="M0 61.653Q0 64.89 2.91 66.5l23.273 12.95q2.91 1.62 2.91-1.62V19.564q0-3.238-2.91-4.856L2.91 1.758Q0 .14 0 3.376z" fill="#eceff1" class="B"></path><path d="M27.2 73.2L2 59.2V4l25.2 14z" fill="url(#B)" class="B"></path><path d="M13.302 67.032q-1.513-.76-1.694.968-.12 2.017 1.613 2.876 1.332.492 1.554-.778.222-2.017-1.472-3.066z" fill="url(#C)" class="B"></path></symbol></svg>